<?xml version="1.0" encoding="UTF-8"?>
<svg width="333px" height="333px" viewBox="0 0 333 333" version="1.1" xmlns="http://www.w3.org/2000/svg" xmlns:xlink="http://www.w3.org/1999/xlink">
    <!-- Generator: Sketch 51.3 (57544) - http://www.bohemiancoding.com/sketch -->
    <title>Group 5</title>
    <desc>Created with Sketch.</desc>
    <defs>
        <filter x="-33.9%" y="-520.1%" width="167.8%" height="1140.2%" filterUnits="objectBoundingBox" id="filter-1">
            <feGaussianBlur stdDeviation="5.20089286" in="SourceGraphic"></feGaussianBlur>
        </filter>
        <filter x="-33.9%" y="-520.1%" width="167.8%" height="1140.2%" filterUnits="objectBoundingBox" id="filter-2">
            <feGaussianBlur stdDeviation="5.20089286" in="SourceGraphic"></feGaussianBlur>
        </filter>
        <filter x="-33.8%" y="-514.9%" width="167.5%" height="1129.8%" filterUnits="objectBoundingBox" id="filter-3">
            <feGaussianBlur stdDeviation="6.86517899" in="SourceGraphic"></feGaussianBlur>
        </filter>
    </defs>
    <g id="Page-1" stroke="none" stroke-width="1" fill="none" fill-rule="evenodd">
        <g id="Mobile" transform="translate(-55.000000, -68.000000)">
            <g id="Group-5" transform="translate(55.000000, 68.000000)">
                <circle id="Oval-2" fill="#995FA2" fill-rule="nonzero" cx="166.5" cy="166.5" r="166.5"></circle>
                <g id="Group-4" transform="translate(49.000000, 81.000000)">
                    <g id="Group">
                        <g id="Group-3" transform="translate(41.000000, 0.000000)">
                            <path d="M80.0770516,7.15541753 L151.104916,149.211146 C152.092873,151.18706 151.291975,153.589752 149.316061,154.577709 C148.76064,154.85542 148.148187,155 147.527207,155 L5.47147879,155 C3.26233979,155 1.47147879,153.209139 1.47147879,151 C1.47147879,150.37902 1.61605915,149.766567 1.89377002,149.211146 L72.9216341,7.15541753 C73.9095911,5.17950354 76.3122832,4.37860615 78.2881972,5.36656315 C79.0623068,5.75361795 79.6899968,6.38130792 80.0770516,7.15541753 Z" id="Triangle" fill="#000000" transform="translate(76.499671, 77.500000) scale(-1, -1) translate(-76.499671, -77.500000) "></path>
                            <path d="M76.5,24 L118.552786,108.105573 C119.046765,109.09353 118.646316,110.294876 117.658359,110.788854 C117.380648,110.92771 117.074422,111 116.763932,111 L36.236068,111 C35.1314985,111 34.236068,110.104569 34.236068,109 C34.236068,108.68951 34.3083582,108.383284 34.4472136,108.105573 L76.5,24 Z" id="Triangle" fill="#995FA2" transform="translate(76.500000, 67.500000) scale(-1, -1) translate(-76.500000, -67.500000) "></path>
                        </g>
                        <path d="M198.183282,70.6590164 L232.105573,138.503599 C233.09353,140.479513 232.292632,142.882205 230.316718,143.870162 C229.761297,144.147873 229.148844,144.292453 228.527864,144.292453 L162.472136,144.292453 C160.262997,144.292453 158.472136,142.501592 158.472136,140.292453 C158.472136,139.671473 158.616716,139.059021 158.894427,138.503599 L192.816718,70.6590164 C193.557686,69.1770809 195.359705,68.5764079 196.841641,69.3173756 C197.422223,69.6076667 197.89299,70.0784342 198.183282,70.6590164 Z" id="Triangle" fill="#000000" transform="translate(195.500000, 106.646227) scale(-1, -1) translate(-195.500000, -106.646227) "></path>
                        <path d="M196.894427,83.7888544 L216,122 L177.618034,122 C177.065749,122 176.618034,121.552285 176.618034,121 C176.618034,120.844755 176.654179,120.691642 176.723607,120.552786 L195.105573,83.7888544 C195.352562,83.2948759 195.953235,83.0946515 196.447214,83.3416408 C196.640741,83.4384045 196.797663,83.595327 196.894427,83.7888544 Z" id="Triangle" fill="#995FA2" transform="translate(196.000000, 102.000000) scale(-1, -1) translate(-196.000000, -102.000000) "></path>
                        <g id="Group-2" transform="translate(156.000000, 69.000000)">
                            <path d="M42.1832816,1.65901638 L76.1055728,69.5035989 C77.0935298,71.4795128 76.2926324,73.882205 74.3167184,74.870162 C73.7612967,75.1478729 73.1488444,75.2924532 72.527864,75.2924532 L6.47213595,75.2924532 C4.26299696,75.2924532 2.47213595,73.5015922 2.47213595,71.2924532 C2.47213595,70.6714729 2.61671632,70.0590206 2.89442719,69.5035989 L36.8167184,1.65901638 C37.5576862,0.177080891 39.3597053,-0.423592149 40.8416408,0.317375597 C41.422223,0.6076667 41.8929905,1.07843418 42.1832816,1.65901638 Z" id="Triangle" fill="#000000" transform="translate(39.500000, 37.646227) scale(-1, -1) translate(-39.500000, -37.646227) "></path>
                            <path d="M40.8944272,14.7888544 L60,53 L21.618034,53 C21.0657492,53 20.618034,52.5522847 20.618034,52 C20.618034,51.8447549 20.6541791,51.6916418 20.7236068,51.5527864 L39.1055728,14.7888544 C39.3525621,14.2948759 39.9532351,14.0946515 40.4472136,14.3416408 C40.640741,14.4384045 40.7976635,14.595327 40.8944272,14.7888544 Z" id="Triangle" fill="#995FA2" transform="translate(40.000000, 33.000000) scale(-1, -1) translate(-40.000000, -33.000000) "></path>
                        </g>
                        <g id="Group-2" transform="translate(0.000000, 69.000000)">
                            <path d="M42.1832816,1.65901638 L76.1055728,69.5035989 C77.0935298,71.4795128 76.2926324,73.882205 74.3167184,74.870162 C73.7612967,75.1478729 73.1488444,75.2924532 72.527864,75.2924532 L6.47213595,75.2924532 C4.26299696,75.2924532 2.47213595,73.5015922 2.47213595,71.2924532 C2.47213595,70.6714729 2.61671632,70.0590206 2.89442719,69.5035989 L36.8167184,1.65901638 C37.5576862,0.177080891 39.3597053,-0.423592149 40.8416408,0.317375597 C41.422223,0.6076667 41.8929905,1.07843418 42.1832816,1.65901638 Z" id="Triangle" fill="#000000" transform="translate(39.500000, 37.646227) scale(-1, -1) translate(-39.500000, -37.646227) "></path>
                            <path d="M40.8944272,14.7888544 L60,53 L21.618034,53 C21.0657492,53 20.618034,52.5522847 20.618034,52 C20.618034,51.8447549 20.6541791,51.6916418 20.7236068,51.5527864 L39.1055728,14.7888544 C39.3525621,14.2948759 39.9532351,14.0946515 40.4472136,14.3416408 C40.640741,14.4384045 40.7976635,14.595327 40.8944272,14.7888544 Z" id="Triangle" fill="#995FA2" transform="translate(40.000000, 33.000000) scale(-1, -1) translate(-40.000000, -33.000000) "></path>
                        </g>
                    </g>
                    <ellipse id="Oval" fill="#000000" filter="url(#filter-1)" cx="41" cy="158.5" rx="23" ry="1.5"></ellipse>
                    <ellipse id="Oval" fill="#000000" filter="url(#filter-2)" cx="194" cy="158.5" rx="23" ry="1.5"></ellipse>
                    <ellipse id="Oval" fill="#000000" filter="url(#filter-3)" cx="117.5" cy="169" rx="30.5" ry="2"></ellipse>
                </g>
            </g>
        </g>
    </g>
</svg>