<?xml version="1.0" encoding="UTF-8"?>
<svg width="24px" height="32px" viewBox="0 0 24 32" version="1.1" xmlns="http://www.w3.org/2000/svg" xmlns:xlink="http://www.w3.org/1999/xlink">
    <!-- Generator: Sketch 50.2 (55047) - http://www.bohemiancoding.com/sketch -->
    <title>text-document</title>
    <desc>Created with Sketch.</desc>
    <defs></defs>
    <g id="Page-1" stroke="none" stroke-width="1" fill="none" fill-rule="evenodd">
        <g id="Desktop-HD" transform="translate(-1289.000000, -3795.000000)" fill="#000000" fill-rule="nonzero">
            <g id="Group-14" transform="translate(1107.500000, 3811.000000) scale(-1, 1) translate(-1107.500000, -3811.000000) translate(902.000000, 3795.000000)">
                <g id="text-document">
                    <path d="M18.33341,0 L1.99086895,0 C0.893555361,0 0,0.881218058 0,1.96242549 L0,30.0373025 C0,31.120142 0.893555361,32 1.99086895,32 L22.0089931,32 C23.1072726,32 24,31.120142 24,30.0373025 L24,6.06795372 L18.33341,0 Z M18.8033028,2.93653219 L21.2870417,5.59677848 L18.8033028,5.59677848 L18.8033028,2.93653219 Z M22.327913,30.0373705 C22.327913,30.2102277 22.1843231,30.3521447 22.008096,30.3521447 L1.99086895,30.3521447 C1.81491789,30.3521447 1.67215603,30.2102277 1.67215603,30.0373705 L1.67215603,1.96242549 C1.67215603,1.7891603 1.81491789,1.64873934 1.99086895,1.64873934 L17.1303188,1.64873934 L17.1303188,6.42108014 C17.1303188,6.87545927 17.505888,7.2438178 17.9672248,7.2438178 L22.327913,7.2438178 L22.327913,30.0373705 Z M4.62185473,8.76458026 L18.8211739,8.76458026 C19.167073,8.76458026 19.4476287,9.04107016 19.4476287,9.3819565 C19.4476287,9.72284284 19.167073,9.99933275 18.8211739,9.99933275 L4.62185473,9.99933275 C4.27602466,9.99933275 3.99539997,9.72284284 3.99539997,9.3819565 C3.99539997,9.04113816 4.27602466,8.76458026 4.62185473,8.76458026 Z M19.4476287,13.530733 C19.4476287,13.8715514 19.167073,14.1481093 18.8211739,14.1481093 L4.62185473,14.1481093 C4.27602466,14.1481093 3.99539997,13.8716194 3.99539997,13.530733 C3.99539997,13.1898467 4.27602466,12.9133568 4.62185473,12.9133568 L18.8211739,12.9133568 C19.167073,12.9133568 19.4476287,13.1899147 19.4476287,13.530733 Z M19.4476287,17.5436446 C19.4476287,17.884531 19.167073,18.1610209 18.8211739,18.1610209 L4.62185473,18.1610209 C4.27602466,18.1610209 3.99539997,17.884531 3.99539997,17.5436446 C3.99539997,17.2027583 4.27602466,16.9262684 4.62185473,16.9262684 L18.8211739,16.9262684 C19.167073,16.9262684 19.4476287,17.2027583 19.4476287,17.5436446 Z M19.4476287,21.6248967 C19.4476287,21.965783 19.167073,22.2422729 18.8211739,22.2422729 L4.62185473,22.2422729 C4.27602466,22.2422729 3.99539997,21.965783 3.99539997,21.6248967 C3.99539997,21.2840103 4.27602466,21.0075204 4.62185473,21.0075204 L18.8211739,21.0075204 C19.167073,21.0075204 19.4476287,21.2840103 19.4476287,21.6248967 Z" id="Shape"></path>
                </g>
            </g>
        </g>
    </g>
</svg>