<svg width="333" height="333" xmlns="http://www.w3.org/2000/svg"><defs><filter x="-33.9%" y="-520.1%" width="167.8%" height="1140.2%" filterUnits="objectBoundingBox" id="a"><feGaussianBlur stdDeviation="5.201" in="SourceGraphic"/></filter><filter x="-33.9%" y="-520.1%" width="167.8%" height="1140.2%" filterUnits="objectBoundingBox" id="b"><feGaussianBlur stdDeviation="5.201" in="SourceGraphic"/></filter><filter x="-33.8%" y="-514.9%" width="167.5%" height="1129.8%" filterUnits="objectBoundingBox" id="c"><feGaussianBlur stdDeviation="6.865" in="SourceGraphic"/></filter></defs><g fill="none" fill-rule="evenodd"><circle fill="#995FA2" fill-rule="nonzero" cx="166.5" cy="166.5" r="166.5"/><g transform="translate(49 81)"><path d="M113.922 147.845L42.894 5.789A4 4 0 0 1 46.472 0h142.056a4 4 0 0 1 3.578 5.789l-71.028 142.056a4 4 0 0 1-7.156 0z" fill="#000"/><path d="M117.5 111L75.447 26.894A2 2 0 0 1 77.237 24h80.527a2 2 0 0 1 1.789 2.894L117.5 111z" fill="#995FA2"/><path d="M192.817 142.633L158.894 74.79a4 4 0 0 1 3.578-5.79h66.056a4 4 0 0 1 3.578 5.789l-33.923 67.844a3 3 0 0 1-5.366 0z" fill="#000"/><path d="M195.106 120.211L176 82h38.382a1 1 0 0 1 .894 1.447l-18.382 36.764a1 1 0 0 1-1.788 0z" fill="#995FA2"/><path d="M192.817 142.633L158.894 74.79a4 4 0 0 1 3.578-5.79h66.056a4 4 0 0 1 3.578 5.789l-33.923 67.844a3 3 0 0 1-5.366 0z" fill="#000"/><path d="M195.106 120.211L176 82h38.382a1 1 0 0 1 .894 1.447l-18.382 36.764a1 1 0 0 1-1.788 0z" fill="#995FA2"/><path d="M36.817 142.633L2.894 74.79A4 4 0 0 1 6.472 69h66.056a4 4 0 0 1 3.578 5.789l-33.923 67.844a3 3 0 0 1-5.366 0z" fill="#000"/><path d="M39.106 120.211L20 82h38.382a1 1 0 0 1 .894 1.447l-18.382 36.764a1 1 0 0 1-1.788 0z" fill="#995FA2"/><ellipse fill="#000" filter="url(#a)" cx="41" cy="158.5" rx="23" ry="1.5"/><ellipse fill="#000" filter="url(#b)" cx="194" cy="158.5" rx="23" ry="1.5"/><ellipse fill="#000" filter="url(#c)" cx="117.5" cy="169" rx="30.5" ry="2"/></g></g></svg>