<?xml version="1.0" encoding="UTF-8"?><!DOCTYPE svg PUBLIC "-//W3C//DTD SVG 1.1//EN" "http://www.w3.org/Graphics/SVG/1.1/DTD/svg11.dtd"><svg width="1916" height="1304" viewBox="0 0 1916 1304" xmlns="http://www.w3.org/2000/svg" xmlns:xlink="http://www.w3.org/1999/xlink"><svg width="8" height="14" viewBox="0 0 8 14" id="arrow-next" x="1844.1419999999998" y="512" xmlns="http://www.w3.org/2000/svg"><path d="M.001 13.425L.61 14 8 7 .607 0 0 .575l6.784 6.426z" fill="#1BA4D6" fill-rule="nonzero"/></svg><svg width="791.803" height="791.803" viewBox="0 0 791.803 791.803" id="cap" xmlns="http://www.w3.org/2000/svg"><path d="M395.904 475.016l-236.203-72.7v121.42c0 56.133 105.787 101.644 236.274 101.644 130.48 0 236.285-45.511 236.285-101.644 0-.442-.145-.886-.154-1.318V402.316l-236.202 72.7z"/><path d="M0 318.734l84.383 30.185 7.191-15.401 31-2.635 4.42 4.599-26.601 6.308-3.877 11.475c-.007 0-60.087 125.604-51.263 187.05 0 0 37.502 22.37 74.988 0l9.962-168v-13.984l55.8-12.588-3.941 9.705-41.604 13.529 19.242 6.874 236.203 72.7 236.201-72.7 159.699-57.116-395.9-152.313L0 318.734z"/></svg><svg viewBox="0 0 512 512" width="512" height="512" id="chapter" y="791.803" xmlns="http://www.w3.org/2000/svg"><path d="M362.937 0h-294c-16.542 0-30 13.458-30 30v102c0 5.523 4.478 10 10 10s10-4.477 10-10V30c0-5.514 4.486-10 10-10h294c5.514 0 10 4.486 10 10v372c0 5.514-4.486 10-10 10h-294c-5.514 0-10-4.486-10-10V216.333c0-5.523-4.478-10-10-10s-10 4.477-10 10V402c0 16.542 13.458 30 30 30h294c16.542 0 30-13.458 30-30V30c0-16.542-13.458-30-30-30z"/><path d="M56.006 169.7c-1.859-1.86-4.439-2.92-7.069-2.92s-5.21 1.06-7.07 2.92a10.107 10.107 0 0 0-2.93 7.07 10.1 10.1 0 0 0 2.93 7.08c1.86 1.86 4.44 2.93 7.07 2.93 2.629 0 5.209-1.07 7.069-2.93a10.078 10.078 0 0 0 2.931-7.08c0-2.63-1.071-5.2-2.931-7.07zM96.066 454.99a10.056 10.056 0 0 0-7.07-2.93c-2.63 0-5.21 1.07-7.069 2.93a10.072 10.072 0 0 0-2.931 7.07c0 2.64 1.071 5.21 2.931 7.07a10.029 10.029 0 0 0 7.069 2.93c2.641 0 5.21-1.06 7.07-2.93a10.054 10.054 0 0 0 2.93-7.07c0-2.63-1.07-5.21-2.93-7.07zM423 40.063c-5.522 0-10 4.477-10 10v392c0 5.514-4.486 10-10 10H129c-5.522 0-10 4.477-10 10s4.478 10 10 10h274c16.542 0 30-13.458 30-30v-392c0-5.523-4.478-10-10-10z"/><path d="M463.063 80c-5.522 0-10 4.477-10 10v392c0 5.514-4.486 10-10 10h-314c-5.522 0-10 4.477-10 10s4.478 10 10 10h314c16.542 0 30-13.458 30-30V90c0-5.523-4.478-10-10-10zM200.937 74h-96c-5.522 0-10 4.477-10 10v96c0 5.523 4.478 10 10 10h96c5.522 0 10-4.477 10-10V84c0-5.523-4.478-10-10-10zm-10 96h-76V94h76v76zM168.761 235.402c-3.906-3.904-10.236-3.905-14.143 0l-26.583 26.583-12.36-12.361c-3.905-3.905-10.235-3.904-14.143 0-3.905 3.905-3.905 10.237 0 14.142l19.432 19.432a10.003 10.003 0 0 0 14.143 0l33.654-33.654c3.905-3.905 3.905-10.237 0-14.142z"/><path d="M332.604 249H215.937c-5.522 0-10 4.477-10 10s4.478 10 10 10h116.667c5.522 0 10-4.477 10-10s-4.478-10-10-10zM326.937 74h-70c-5.522 0-10 4.477-10 10s4.478 10 10 10h70c5.522 0 10-4.477 10-10s-4.478-10-10-10zM326.937 122h-70c-5.522 0-10 4.477-10 10s4.478 10 10 10h70c5.522 0 10-4.477 10-10s-4.478-10-10-10zM326.937 170h-70c-5.522 0-10 4.477-10 10s4.478 10 10 10h70c5.522 0 10-4.477 10-10s-4.478-10-10-10zM168.761 311.769c-3.906-3.904-10.236-3.905-14.143 0l-26.583 26.583-12.36-12.361c-3.905-3.905-10.235-3.904-14.143 0-3.905 3.905-3.905 10.237 0 14.142l19.432 19.432a10.003 10.003 0 0 0 14.143 0l33.654-33.654c3.905-3.905 3.905-10.237 0-14.142zM332.604 325H215.937c-5.522 0-10 4.477-10 10s4.478 10 10 10h116.667c5.522 0 10-4.477 10-10s-4.478-10-10-10z"/></svg><svg width="612" height="612" viewBox="0 0 612 612" id="cross" x="791.803" xmlns="http://www.w3.org/2000/svg"><path d="M612 36.004L576.521.603 306 270.608 35.478.603 0 36.004l270.522 270.007L0 575.997l35.478 35.4L306 341.411l270.521 269.986 35.479-35.4-270.541-269.986z"/></svg><svg height="512" viewBox="-1 0 512 512" width="512" id="employee" x="512" y="791.803" xmlns="http://www.w3.org/2000/svg"><path d="M509.035 395.027c-.402-4.152-4.094-7.207-8.254-6.8-4.152.402-7.195 4.09-6.793 8.242 7.578 78.707-81.984 129.414-145.414 82.336-22.46-16.676-37.043-43.39-37.043-73.461 0-50.235 40.832-91.446 91.438-91.446a91.372 91.372 0 0 1 84.168 55.645c1.633 3.84 6.078 5.621 9.918 3.988a7.563 7.563 0 0 0 3.988-9.914c-36.07-84.664-155.711-86.87-194.723-3.125a138.829 138.829 0 0 0-36.476-19.246l-26.39-27.527c18.25-14.188 36.448-35.614 42.554-58.91 20.847-4.153 36.61-22.59 36.61-44.641 0-21.23-14.602-39.106-34.302-44.113v-20.68h7.153c7.246 0 13.14-5.883 13.14-13.129V52.773c0-13.687-7.347-25.687-18.3-32.265V13.09c0-7.348-6.832-13.09-15.567-13.09h-160.11C97.169 0 80.653 4.746 68.13 13.371c-13.39 9.223-20.77 21.758-20.77 35.3v81.911c0 11.047 10.59 19.813 24.47 20.617v16.063c-17.645 6.258-30.313 23.129-30.313 42.898 0 20.528 13.644 37.906 32.347 43.57 1.25 5.079 3.063 10.157 5.442 15.208 1.78 3.777 6.277 5.402 10.054 3.628a7.563 7.563 0 0 0 3.618-10.07c-9.329-19.77-4.856-25.652-6.036-82.738V151.27c3.438-.512 71.618 5.542 139.965-41.817.887 19.961 17.395 35.922 37.578 35.922h8.715c0 100.336 1.098 97.414-3.062 109.777-6.52 19.258-22.524 36.578-39.672 49.528h-.012c-6.73 5.129-15.254 10.62-23.469 14.812-17.875 9.18-26.812 8.828-26.914 8.848-14.894 0-49.406-18.219-71.363-42.735a7.543 7.543 0 0 0-10.672-.585c-3.113 2.78-3.375 7.558-.582 10.671 6.477 7.223 13.844 13.895 21.524 19.809l-24.829 25.898C39.36 360.778 0 413.094 0 474.441c0 20.274 16.496 36.77 36.77 36.77h290.593c10.399 0 19.809-4.344 26.5-11.316 73.871 38.53 163.215-19.91 155.172-104.868zM71.828 236.47c-9.082-5.25-15.195-15.074-15.195-26.309s6.113-21.062 15.195-26.312zM307.5 210.168c0 12.809-7.96 23.793-19.195 28.258.011-.637.011 2.488.011-56.512 11.235 4.465 19.184 15.45 19.184 28.254zM92.676 136.156c-19.82 0-19.336.051-20.848-.11-5.855-.616-9.351-3.698-9.351-5.464v-81.91c0-18.192 23.89-33.559 52.156-33.559 167.687.012 160.008-.02 160.562.024v8.07c0 35.531-77.136 113.727-182.52 112.95zm171.808-5.894c-12.414 0-22.504-10.086-22.504-22.5v-9.735c18.454-15.289 38.797-37.437 45.88-60.129a22.392 22.392 0 0 1 5.632 14.875v77.489zm-31.53 194.34c.183.191 25.269 26.468 25.374 26.468-.215.657-22.09 69.602-22.39 70.559-1.454 1.914-4.891 2.66-7.438 1.027-5.293-3.426-37.063-24.011-38.594-25 1.531-2.597 42.938-72.883 43.047-73.054zm-32.79 97.703v16.324c0 1.71-1.453 3.305-3.305 3.305h-29.586c-1.863 0-3.304-1.594-3.304-3.305v-16.324l18.097-11.72zm9.047-87.184c-6.176 10.461-6.598 11.164-27.145 46.059-21.261-36.102-20.535-34.844-25.738-43.672 19.754 8.043 29.89 8.496 52.883-2.387zm-78.031-10.52c3.144 5.34 13.43 22.794 14.074 23.891 0 .012 0 .012.012.02.011.02.02.031.02.031 0 .012 0 .012.01.02 0 .011.009.011.009.019 34.43 58.426 1.68 2.855 28.922 49.074-42.555 27.559-40.137 26.504-43.258 25.707-1.172-.293-2.149-.906-2.774-1.734.094.297-21.894-68.992-22.39-70.559 9.465-9.875 17.097-17.836 25.375-26.468zm12.101 171.497H86.72v-49.832a7.555 7.555 0 0 0-7.555-7.555 7.559 7.559 0 0 0-7.559 7.555v49.832H36.77c-11.942 0-21.657-9.715-21.657-21.657 0-52.148 31.856-97 77.13-116.105 23.175 72.816 21.706 68.797 22.41 70.105 5.574 10.176 19.316 13.301 29.19 6.903l5.009-3.246c.503 3.054-2.426 14.14 7.609 21.425zm15.809 0l12.101-39.051h22.422l12.496 39.05zm168.273 0h-34.847v-49.832a7.551 7.551 0 0 0-7.559-7.555 7.558 7.558 0 0 0-7.555 7.555v49.832H221.98l-13.753-42.989c4.293-3.375 7.05-8.605 7.05-14.48v-6.531l5.008 3.246c11.559 7.488 26.695 1.168 29.77-8.242l21.863-68.864a123.859 123.859 0 0 1 28.832 17.028c-12.445 42.086 2.219 89.113 39.773 116.367a21.62 21.62 0 0 1-13.16 4.465zm0 0"/><path d="M430.492 476.531c9.961-3.836 18.86-9.629 26.45-17.215 47.43-47.433 14.527-130.265-53.973-130.265-68.29 0-101.504 82.73-53.969 130.265 14.625 14.622 35.223 22.149 49.125 22.149a7.554 7.554 0 0 0 7.531-7.027 7.551 7.551 0 0 0-7.008-8.067 61.139 61.139 0 0 1-38.96-17.746c-37.981-37.977-11.75-104.46 43.28-104.46 54.884 0 81.337 66.41 43.286 104.46-6.086 6.086-13.215 10.73-21.191 13.8a7.559 7.559 0 0 0-4.336 9.77 7.556 7.556 0 0 0 9.765 4.336zm0 0"/><path d="M432.574 367.07a7.558 7.558 0 0 0-10.402 2.465l-38.438 62.317-13.523-18.477a7.556 7.556 0 1 0-12.195 8.926l20.152 27.543a7.557 7.557 0 0 0 12.531-.496l44.34-71.88a7.558 7.558 0 0 0-2.465-10.398zm0 0M221.734 210.383c0 6.59 5.336 11.93 11.93 11.93 6.582 0 11.922-5.34 11.922-11.93 0-6.582-5.34-11.922-11.922-11.922-6.578 0-11.93 5.336-11.93 11.922zm0 0M252.8 180.07a7.53 7.53 0 0 0 4.02 1.16c7.34 0 10.567-9.613 4.032-13.957-16.09-10.117-41.918-5.12-44.809-4.515-4.082.847-6.691 4.847-5.856 8.93a7.561 7.561 0 0 0 8.938 5.863c4.855-.996 17.02-2.469 26.531-.262 2.66.606 5.121 1.5 7.145 2.781zm0 0M130.46 198.46c-6.581 0-11.92 5.34-11.92 11.923 0 7.035 6.112 12.367 12.355 11.918 6.386-.219 11.496-5.469 11.496-11.918 0-6.39-5.04-11.61-11.368-11.903-.191-.02-.37-.02-.562-.02zm0 0M148.086 162.758c-2.895-.606-28.73-5.602-44.813 4.515-6.543 4.348-3.296 13.957 4.032 13.957 4.023 0 3.82-2.257 11.175-3.949 9.512-2.199 21.653-.726 26.52.27a7.56 7.56 0 0 0 8.938-5.856c.847-4.078-1.774-8.09-5.852-8.937zm0 0M197.45 257.61c0 4.878-2.278 9.222-5.825 12.042-9.93 7.946-24.95.887-24.95-12.043 0-4.164-3.39-7.554-7.558-7.554-15.918 0-6.082 38.058 22.946 38.058 23.804 0 33.664-25.125 29.847-33.574-3.332-7.465-14.46-5-14.46 3.07zm0 0"/></svg><svg width="344.339" height="344.339" viewBox="0 0 344.339 344.339" id="list-menu" x="1403.8029999999999" y="512" xmlns="http://www.w3.org/2000/svg"><path d="M0 46.06h344.339v29.52H0zM0 156.506h344.339v29.52H0zM0 268.748h344.339v29.531H0z"/></svg><svg width="14" height="14" viewBox="0 0 14 14" id="more" x="1830.1419999999998" y="512" xmlns="http://www.w3.org/2000/svg"><path d="M14 6.667H7.333V0h-.666v6.667H0v.666h6.667V14h.666V7.333H14z" fill="#000" fill-rule="nonzero"/></svg><svg width="24" height="32" viewBox="0 0 24 32" id="paper" x="1806.1419999999998" y="512" xmlns="http://www.w3.org/2000/svg"><path d="M5.667 0h16.342C23.106 0 24 .881 24 1.962v28.075C24 31.12 23.106 32 22.01 32H1.99C.893 32 0 31.12 0 30.037V6.068L5.667 0zm-.47 2.937l-2.484 2.66h2.484v-2.66zm-3.525 27.1c0 .173.144.315.32.315h20.017a.317.317 0 0 0 .319-.315V1.962a.316.316 0 0 0-.319-.313H6.87V6.42a.83.83 0 0 1-.836.823h-4.36v22.793zM19.378 8.765h-14.2a.622.622 0 0 0-.626.617c0 .34.28.617.627.617h14.2a.622.622 0 0 0 .626-.617c0-.34-.281-.617-.627-.617zM4.552 13.53c0 .34.28.617.627.617h14.2a.622.622 0 0 0 .626-.617c0-.341-.281-.618-.627-.618h-14.2a.622.622 0 0 0-.626.618zm0 4.013c0 .34.28.617.627.617h14.2a.622.622 0 0 0 .626-.617c0-.341-.281-.618-.627-.618h-14.2a.622.622 0 0 0-.626.618zm0 4.08c0 .342.28.618.627.618h14.2a.622.622 0 0 0 .626-.617c0-.341-.281-.617-.627-.617h-14.2a.622.622 0 0 0-.626.617z" fill="#000" fill-rule="nonzero"/></svg><svg height="512" viewBox="0 -4 512.002 512" width="512" id="puzzle" x="1403.8029999999999" xmlns="http://www.w3.org/2000/svg"><path d="M482.285 350.508c-6.867 0 5.735-1.758-178.37 44.113a32.551 32.551 0 0 0-8.25-13.945l-55.29-55.29c-6.855-6.855-15.973-10.632-25.668-10.632H104.418c-2.078-19.012-18.238-33.856-37.793-33.856H38.023C17.055 280.898 0 297.953 0 318.922v133.566c0 20.973 17.055 38.035 38.023 38.035h28.602c20.957 0 38.023-17.062 38.023-38.035v-13.32c18.266 3.883 39.688 4.215 68.602 18.36 57.195 28.253 59.34 28.382 69.434 34.89 25.234 16.262 57.652 16.453 83.105.426l143.203-72.606c3.707-1.883 5.192-6.414 3.313-10.12a7.534 7.534 0 0 0-10.121-3.31c-149.75 75.938-143.575 72.758-144.16 73.133-20.54 13.07-46.786 12.965-67.184-.18-11.285-7.273-14.809-7.984-70.973-35.757-31.578-15.453-55.215-15.867-75.219-20.117v-94.075h110.059a21.115 21.115 0 0 1 15.027 6.223l55.282 55.29c10.89 10.878 3.566 29.152-11.516 29.152-4.496 0-8.73-1.758-11.922-4.938l-49.8-49.82c-2.942-2.942-7.712-2.942-10.653 0s-2.941 7.71 0 10.648l49.812 49.82c17.958 17.899 48.864 8.782 53.7-16.222l176.047-44.313c8.761-.949 16.261 5.953 16.261 14.618 0 9.527-7.8 12.816-7.902 12.917a7.528 7.528 0 0 0-3.309 10.118 7.53 7.53 0 0 0 10.121 3.312l1.727-.879c7.535-3.8 14.422-14.066 14.422-25.468-.004-16.41-13.336-29.762-29.719-29.762zM89.59 452.492c0 12.668-10.309 22.977-22.965 22.977H38.023c-12.656 0-22.964-10.309-22.964-22.977v-133.57c0-12.656 10.308-22.969 22.964-22.969h28.602c11.23 0 20.617 8.121 22.586 18.805.57 3.082.379 137.625.379 137.734zm0 0"/><path d="M62.418 411.453a7.535 7.535 0 0 0-9.89 3.942 7.526 7.526 0 0 0 3.94 9.89c10.493 4.512 7.177 20.168-4.144 20.168-7.12 0-12.16-6.95-10.02-13.687 1.258-3.965-.933-8.2-4.894-9.457a7.534 7.534 0 0 0-9.457 4.898c-5.238 16.5 7.156 33.305 24.371 33.305 14.098 0 25.567-11.469 25.567-25.567a25.554 25.554 0 0 0-15.473-23.492zm0 0M86.945 192.844a7.525 7.525 0 0 0 5.883-8.875c-3.621-17.86 10.102-34.403 28.102-34.406a7.526 7.526 0 0 0 7.527-7.528v-19.004c0-7.617 6.2-13.812 13.813-13.812h19.058a7.526 7.526 0 0 0 7.527-7.528v-.156c.06-15.765 12.903-28.57 28.68-28.57 15.79 0 28.64 12.828 28.676 28.613v.113a7.529 7.529 0 0 0 7.527 7.528h19.055c7.621 0 13.82 6.195 13.82 13.812v12.117a43.733 43.733 0 0 0-31.144 22.637 7.72 7.72 0 0 0-.348.758 43.49 43.49 0 0 0-4.703 19.695c0 4.91.82 9.63 2.32 14.04.063.253.137.503.227.753 5.37 14.953 18.555 25.66 33.648 28.293v12.23c0 7.622-6.199 13.821-13.82 13.821h-12.164c-3.55-20.574-21.524-36.273-43.094-36.273-21.555 0-39.52 15.675-43.09 36.273H142.27c-7.618 0-13.813-6.2-13.813-13.82v-19.11a7.529 7.529 0 0 0-7.527-7.527 28.628 28.628 0 0 1-14.7-4.05 7.53 7.53 0 0 0-7.734 12.921 43.545 43.545 0 0 0 14.902 5.535v12.235c0 15.921 12.954 28.875 28.872 28.875h19.058c4.156 0 7.527-3.438 7.527-7.594 0-15.813 12.864-28.68 28.68-28.68 15.809 0 28.672 12.867 28.672 28.746a7.529 7.529 0 0 0 7.527 7.528h19.059c8.45 0 16.062-3.649 21.348-9.45 5.285 5.801 12.894 9.45 21.34 9.45h19.058c4.16 0 7.531-3.438 7.531-7.594 0-15.813 12.864-28.68 28.68-28.68 15.812 0 28.68 12.867 28.68 28.746a7.526 7.526 0 0 0 7.527 7.528h19.059c15.918 0 28.867-12.954 28.867-28.875v-19.11c0-4.156-3.38-7.527-7.535-7.527-15.817 0-28.68-12.867-28.68-28.684 0-15.812 12.863-28.68 28.68-28.68h.007a7.526 7.526 0 0 0 7.528-7.527v-19c0-15.918-12.95-28.867-28.867-28.867h-19.059a7.524 7.524 0 0 0-7.527 7.52c-.02 15.789-12.887 28.636-28.68 28.636s-28.66-12.847-28.68-28.64a7.53 7.53 0 0 0-7.53-7.516h-19.056c-8.445 0-16.058 3.645-21.34 9.445-5.285-5.8-12.898-9.445-21.347-9.445h-12.168c-3.559-20.566-21.527-36.258-43.094-36.258-21.57 0-39.539 15.692-43.098 36.258H142.27c-15.918 0-28.868 12.95-28.868 28.867v12.121c-24.097 4.203-40.242 27.598-35.332 51.809.82 4.035 4.754 6.715 8.875 5.883zm187.2-43.281a7.526 7.526 0 0 0 7.527-7.528v-19.004c0-7.617 6.195-13.812 13.812-13.812h12.188c3.601 20.515 21.558 36.16 43.082 36.16 21.523 0 39.476-15.645 43.078-36.16h12.188c7.617 0 13.812 6.195 13.812 13.812v12.117c-20.547 3.579-36.219 21.54-36.219 43.09s15.668 39.512 36.219 43.09v12.227c0 7.62-6.195 13.82-13.812 13.82h-12.168c-3.551-20.574-21.524-36.273-43.098-36.273-21.559 0-39.524 15.675-43.094 36.273h-12.176c-7.617 0-13.812-6.2-13.812-13.82v-19.11c0-3.96-3.11-7.511-7.649-7.53-5.96-.024-12.039-1.927-17.234-5.876-21.738-16.59-10.035-51.476 17.356-51.476zm0 0M248.516 296.184v19.242a7.53 7.53 0 0 0 15.059 0v-19.242a7.53 7.53 0 1 0-15.06 0zm0 0M256.043 34.3a7.527 7.527 0 0 0 7.531-7.527V7.531a7.53 7.53 0 1 0-15.058 0v19.242a7.526 7.526 0 0 0 7.527 7.528zm0 0M33.613 143.133h19.242a7.53 7.53 0 1 0 0-15.059H33.613a7.53 7.53 0 1 0 0 15.059zm0 0M93.605 37.445c14.036 11.102 14.926 14.133 19.579 14.133 7.004 0 10.214-8.789 4.843-13.297l-14.742-12.367a7.53 7.53 0 0 0-10.61.926 7.53 7.53 0 0 0 .93 10.605zm0 0M54.277 258.043c2.516 0 2.453-.59 20.664-7.645a7.53 7.53 0 0 0 4.211-9.78 7.525 7.525 0 0 0-9.773-4.212l-17.883 7.11c-7.664 3.047-5.492 14.527 2.781 14.527zm0 0M472.383 153.113h19.242a7.53 7.53 0 1 0 0-15.058h-19.242a7.527 7.527 0 0 0-7.528 7.53 7.526 7.526 0 0 0 7.528 7.528zm0 0M437.328 288.578l14.742 12.371c3.2 2.684 7.946 2.242 10.606-.93a7.53 7.53 0 0 0-.926-10.605l-14.746-12.371a7.526 7.526 0 0 0-10.606.93 7.526 7.526 0 0 0 .93 10.605zm0 0M392.824 45.086l15.16-11.852c3.278-2.562 3.86-7.293 1.297-10.566a7.528 7.528 0 0 0-10.566-1.297L383.55 33.223a7.527 7.527 0 0 0-1.293 10.566 7.525 7.525 0 0 0 10.566 1.297zm0 0"/></svg><svg viewBox="0 0 58 58" width="58" height="58" id="video" x="1748.1419999999998" y="512" xmlns="http://www.w3.org/2000/svg"><path d="M36.537 28.156l-11-7a1.005 1.005 0 0 0-1.019-.033A1.002 1.002 0 0 0 24 22v14a1.001 1.001 0 0 0 1.537.844l11-7a1.002 1.002 0 0 0 0-1.688zM26 34.179V23.821L34.137 29 26 34.179z"/><path d="M57 6H1a1 1 0 0 0-1 1v44a1 1 0 0 0 1 1h56a1 1 0 0 0 1-1V7a1 1 0 0 0-1-1zM10 28H2v-9h8v9zm-8 2h8v9H2v-9zm10 10V8h34v42H12V40zm44-12h-8v-9h8v9zm-8 2h8v9h-8v-9zm8-22v9h-8V8h8zM2 8h8v9H2V8zm0 42v-9h8v9H2zm54 0h-8v-9h8v9z"/></svg><svg width="300" height="300" viewBox="0 0 300 300" id="worker" x="1403.8029999999999" y="856.3389999999999" xmlns="http://www.w3.org/2000/svg"><path d="M63.946 118.649c5.727 0 11.353-.897 16.773-2.625l32.214 32.192 35.279-35.272-32.199-32.227c6.207-19.396 1.107-40.888-13.359-55.349C92.356 15.067 78.647 9.396 64.091 9.396a55.153 55.153 0 0 0-23.605 5.332 3.75 3.75 0 0 0-2.084 2.755 3.783 3.783 0 0 0 1.045 3.291l33.894 33.902a13.124 13.124 0 0 1 3.881 9.339c0 3.531-1.382 6.843-3.881 9.342-4.979 4.994-13.684 4.994-18.672-.013L20.763 39.451a3.778 3.778 0 0 0-3.287-1.048 3.745 3.745 0 0 0-2.755 2.084c-9.958 20.868-5.69 45.858 10.641 62.177 10.304 10.304 24.006 15.985 38.584 15.985zM236.074 181.348a55.09 55.09 0 0 0-16.798 2.635l-35.631-35.634-35.303 35.297 35.641 35.64c-6.194 19.39-1.098 40.876 13.359 55.346 10.301 10.301 24.01 15.973 38.565 15.973a55.17 55.17 0 0 0 23.608-5.335 3.748 3.748 0 0 0 2.084-2.755 3.764 3.764 0 0 0-1.045-3.291l-33.893-33.909a13.116 13.116 0 0 1-3.878-9.327c0-3.528 1.379-6.84 3.884-9.342 4.995-4.998 13.681-4.995 18.666.003l33.899 33.893a3.766 3.766 0 0 0 3.291 1.048 3.756 3.756 0 0 0 2.755-2.084c9.958-20.865 5.693-45.852-10.638-62.174-10.301-10.303-24-15.984-38.566-15.984z"/><path d="M221.571 100.988s5.897 5.165 10.759 2.752c5.495-2.765 20.976 12.497 25.915 16.068.016.012.05.012.108.04l-2.7 2.712c-3.566 3.525-3.563 9.281-.009 12.812a9.08 9.08 0 0 0 12.831 0l21.378-21.35c3.532-3.55 3.535-9.296-.006-12.84-3.528-3.532-9.283-3.532-12.824.003l-3.56 3.557c-2.95-4.063-7.852-10.988-7.23-13.282 2.607-10.047-17.875-33.779-17.875-33.779C197.49 6.823 163.513 7.979 147.349 13.537c-6.488 2.232-5.285 3.646 1.454 4.833 49.04 8.56 55.123 37.48 46.81 48.638-3.197 4.308 1.466 9.509 1.466 9.509l1.753 1.741-82.803 82.788c1.123.677 2.214 1.447 3.176 2.412l13.929 13.916c.946.949 1.719 2.032 2.39 3.154l82.804-82.791 3.243 3.251zM113.632 169.025c-3.056-3.059-8.257-3.256-11.526-.417l-92.019 82.497c-3.284 2.836-3.467 7.663-.405 10.725l25.064 25.046c3.064 3.062 7.882 2.891 10.715-.375l82.522-92.046c2.823-3.266 2.644-8.449-.421-11.507l-13.93-13.923z"/></svg></svg>